<?xml version="1.0" standalone="no"?><!DOCTYPE svg PUBLIC "-//W3C//DTD SVG 1.1//EN" "http://www.w3.org/Graphics/SVG/1.1/DTD/svg11.dtd"><svg t="1651213823375" class="icon" viewBox="0 0 1024 1024" version="1.1" xmlns="http://www.w3.org/2000/svg" p-id="3990" xmlns:xlink="http://www.w3.org/1999/xlink" width="200" height="200"><defs><style type="text/css"></style></defs><path d="M230.4 947.2a76.8 76.8 0 0 1-76.8-76.8V153.6a76.8 76.8 0 0 1 76.8-76.8h358.4v153.6a115.2 115.2 0 0 0 115.2 115.2h166.4v524.8a76.8 76.8 0 0 1-76.8 76.8H230.4z m616.704-678.4H704a38.4 38.4 0 0 1-38.4-38.4V103.7952L847.104 268.8zM230.4 1024h563.2c84.8256 0 153.6-68.7744 153.6-153.6V312.6272a128 128 0 0 0-41.8944-94.72L702.208 33.2928A128 128 0 0 0 616.1152 0H230.4C145.5744 0 76.8 68.7744 76.8 153.6v716.8c0 84.8256 68.7744 153.6 153.6 153.6z m25.6-588.8a38.4 38.4 0 0 1 38.4-38.4h179.2a38.4 38.4 0 1 1 0 76.8H294.4a38.4 38.4 0 0 1-38.4-38.4z m38.4 192a38.4 38.4 0 1 0 0 76.8h307.2a38.4 38.4 0 1 0 0-76.8H294.4z" fill="#13227a" p-id="3991"></path></svg>